<svg xmlns="http://www.w3.org/2000/svg" viewBox="0 0 200 200" role="img" aria-label="Cute snail mascot">
  <ellipse cx="100" cy="178" rx="58" ry="11" fill="#000" opacity="0.1"/>
  <circle cx="118" cy="98" r="54" fill="#FFB347"/>
  <circle cx="118" cy="98" r="44" fill="#FF9F43"/>
  <path d="M118 56 C94 56 82 78 94 98 C82 118 94 140 118 140 C142 140 154 118 142 98 C154 78 142 56 118 56 Z" fill="none" stroke="#E67E22" stroke-width="5" stroke-linecap="round"/>
  <path d="M118 70 C104 70 96 84 104 98 C96 112 104 126 118 126 C132 126 140 112 132 98 C140 84 132 70 118 70 Z" fill="none" stroke="#D35400" stroke-width="4" stroke-linecap="round"/>
  <ellipse cx="72" cy="128" rx="48" ry="32" fill="#7DCEA0"/>
  <ellipse cx="48" cy="102" rx="28" ry="24" fill="#58D68D"/>
  <ellipse cx="34" cy="92" rx="12" ry="14" fill="#fff" stroke="#2d3436" stroke-width="1.5"/>
  <ellipse cx="60" cy="90" rx="12" ry="14" fill="#fff" stroke="#2d3436" stroke-width="1.5"/>
  <circle cx="36" cy="94" r="6" fill="#2d3436"/>
  <circle cx="62" cy="92" r="6" fill="#2d3436"/>
  <circle cx="38" cy="91" r="2.2" fill="#fff"/>
  <circle cx="64" cy="89" r="2.2" fill="#fff"/>
  <ellipse cx="26" cy="104" rx="6" ry="3.5" fill="#FF6B9D" opacity="0.35"/>
  <ellipse cx="72" cy="102" rx="6" ry="3.5" fill="#FF6B9D" opacity="0.35"/>
  <path d="M40 110 Q50 122 66 112" fill="none" stroke="#27AE60" stroke-width="3.5" stroke-linecap="round"/>
  <path d="M30 84 Q24 64 22 48" stroke="#58D68D" stroke-width="4.5" stroke-linecap="round" fill="none"/>
  <path d="M56 82 Q64 60 68 44" stroke="#58D68D" stroke-width="4.5" stroke-linecap="round" fill="none"/>
  <circle cx="22" cy="46" r="7" fill="#FF6B9D"/>
  <circle cx="68" cy="42" r="7" fill="#3B9EDD"/>
</svg>
